<svg width="135" height="29" viewBox="0 0 135 29" fill="none" xmlns="http://www.w3.org/2000/svg">
<path d="M30.875 0L21.9688 11.875L28.7375 20.9L24.9375 23.75C20.9237 18.4062 14.25 9.5 14.25 9.5L0 28.5H52.25L30.875 0Z" fill="white"/>
<path d="M64.508 16.628C64.508 16.646 65.12 17.708 65.12 17.708C65.138 17.708 65.156 17.6 65.156 17.42C65.228 16.178 67.55 12.794 67.874 12.452C68.216 12.092 68.396 12.002 68.756 12.002C70.412 12.002 70.196 13.136 70.448 14.504C70.466 14.594 70.466 14.684 70.466 14.738C70.466 15.134 70.106 14.684 70.106 15.26V15.314C70.124 15.818 70.124 16.43 70.124 17.042C70.124 19.202 70.034 21.632 69.908 21.758C69.836 21.83 69.782 22.082 69.782 22.316C69.782 22.658 69.728 22.856 69.476 22.856C69.188 22.856 68.954 22.442 68.954 21.866C68.954 21.254 68.882 21.074 68.576 20.966C68.378 20.894 68.27 20.606 68.27 20.264C68.27 19.958 68.414 19.634 68.414 19.31C68.414 19.04 68.342 18.662 68.216 18.032L67.964 16.772L67.37 17.852C66.434 19.526 66.056 20.012 65.48 20.21C65.3 20.282 65.138 20.3 64.994 20.3C64.742 20.3 64.58 20.192 64.58 19.994C64.58 19.76 64.112 19.616 64.112 19.346C64.112 19.22 63.86 18.95 63.5 18.698C62.492 17.978 63.392 18.032 62.582 17.15C62.312 16.862 62.078 16.52 62.078 16.412V16.376C61.988 16.376 61.808 17.312 61.808 17.438C61.808 17.654 61.952 17.906 61.952 18.194C61.952 18.23 61.934 18.266 61.898 18.266C61.844 18.266 61.646 18.194 61.592 18.194C61.52 18.194 61.502 18.23 61.502 18.374C61.502 18.518 61.538 18.968 61.538 19.166C61.538 19.868 61.304 20.066 61.304 20.84C61.304 21.092 61.358 21.614 61.358 21.83C61.358 22.316 61.034 22.316 61.034 22.676C61.034 22.892 60.944 23 60.836 23C60.584 23 60.206 22.604 60.206 22.208C60.206 21.722 59.684 21.866 59.684 21.308C59.684 21.236 59.702 21.164 59.702 21.056V21.002C59.702 20.534 59.396 19.706 59.396 19.166C59.396 18.716 59.648 18.788 59.648 18.266C59.648 17.852 59.576 17.258 59.576 16.898C59.576 16.52 59.666 16.412 59.666 15.944C59.666 15.404 59.54 14 59.54 13.46C59.54 12.758 59.63 12.434 60.08 12.434C60.332 12.434 60.62 12.542 60.728 12.704C60.782 12.776 60.908 12.83 61.034 12.83C61.34 12.83 61.484 13.316 61.754 13.316C62.006 13.316 62.168 13.658 62.402 13.658C62.636 13.658 64.058 15.116 64.166 15.458C64.22 15.638 64.742 16.178 64.742 16.358C64.742 16.484 64.508 16.484 64.508 16.628ZM78.1707 18.95C78.1707 18.014 77.3427 17.87 76.3527 17.87H75.6327C75.2547 17.87 74.9847 17.852 74.9847 17.708C74.9847 17.69 75.0027 17.672 75.0027 17.654V17.582C75.0027 17.474 74.9307 17.456 74.6787 17.456C74.2647 17.456 74.0127 17.744 74.0127 18.212C74.0127 18.518 73.5627 19.562 73.5627 19.994C73.5627 20.03 73.5807 20.066 73.5807 20.084C73.6167 20.228 73.9947 20.696 74.4087 21.092C75.0927 21.758 75.2187 21.83 75.6687 21.83C75.9387 21.83 76.2987 21.758 76.4967 21.65C76.6407 21.578 76.7307 21.524 76.7847 21.524C76.8387 21.524 76.8567 21.596 76.8567 21.722C76.8567 21.848 76.8927 21.902 76.9467 21.902C77.5407 21.902 78.1707 19.256 78.1707 18.95ZM71.2227 19.922C71.2227 18.176 72.8787 15.584 73.9587 15.08C74.1927 14.972 74.4987 14.882 74.7507 14.882C74.9847 14.882 75.1647 14.954 75.1647 15.188V15.314C75.1647 15.332 75.1467 15.368 75.1467 15.386C75.1467 15.62 75.4347 15.674 75.8667 15.674C76.2807 15.674 76.8567 15.62 77.3967 15.62C77.8467 15.62 78.2787 15.656 78.6387 15.8C79.6287 16.196 79.6287 18.158 79.8267 19.58C79.8627 19.868 79.8807 20.156 79.8807 20.444C79.8807 21.542 79.5747 22.46 79.0887 22.604C78.9447 22.64 78.5487 22.91 78.2067 23.198C77.4687 23.792 76.6227 24.08 75.5967 24.08C74.5527 24.08 73.9767 23.846 73.0047 22.964C71.7987 21.884 71.2227 20.984 71.2227 19.922ZM86.948 22.154C86.948 22.118 86.93 21.992 86.894 21.992C86.876 21.992 86.858 22.028 86.858 22.118V22.154C86.858 22.244 86.876 22.28 86.894 22.28C86.912 22.28 86.948 22.226 86.948 22.154ZM80.702 17.222C80.702 16.178 80.9 14.756 81.602 14.756C81.944 14.756 82.79 15.764 82.79 16.124C82.79 16.232 82.754 16.358 82.754 16.466C82.754 16.628 82.808 16.79 82.88 16.898C82.97 17.042 83.078 17.582 83.114 18.104C83.276 20.102 83.366 20.624 83.6 20.894C83.708 21.002 83.744 21.092 83.744 21.146C83.744 21.236 83.546 21.272 83.546 21.326C83.546 21.362 83.582 21.398 83.672 21.398C83.708 21.398 83.744 21.416 83.78 21.398C83.816 21.398 83.834 21.38 83.87 21.38C84.176 21.38 84.374 21.686 84.716 21.686C85.418 21.686 86.372 21.02 86.372 20.75C86.372 20.462 86.66 20.498 86.66 20.12C86.66 19.742 86.534 19.13 86.534 18.824V18.716C86.552 18.644 86.57 18.536 86.57 18.446C86.57 17.726 86.21 16.592 86.21 15.8C86.21 15.314 86.336 14.972 86.786 14.972C87.2 14.972 88.064 15.53 88.136 15.872C88.154 15.998 88.262 16.178 88.352 16.286C88.586 16.556 88.838 17.834 88.838 18.68V19.004C88.838 19.454 88.946 19.652 88.946 19.868C88.946 19.922 88.91 19.94 88.766 19.94C88.568 19.94 88.496 20.012 88.496 20.12C88.496 20.318 88.712 20.642 88.712 20.876C88.712 21.11 88.532 21.074 88.532 21.452C88.532 21.902 88.658 22.676 88.658 22.856C88.658 23.252 88.208 23.396 87.812 23.396C87.596 23.396 87.614 23.252 87.254 23.252C87.056 23.252 87.038 23.216 87.038 23.144V23.018C87.038 22.928 86.984 22.784 86.858 22.784C86.66 22.784 86.39 23.108 86.174 23.108H86.12C86.102 23.108 86.084 23.09 86.048 23.09C85.436 23.09 84.518 23.504 83.87 23.576L83.204 23.648L82.394 22.838C81.512 21.938 81.044 21.074 81.044 20.354C81.044 19.544 80.702 18.14 80.702 17.222ZM90.2403 20.804C90.2403 20.606 90.3483 20.498 90.3483 20.282C90.3483 19.94 90.1863 19.544 90.1863 19.202C90.1863 19.166 90.2043 19.112 90.2043 19.076V18.986C90.2043 18.428 89.6283 17.24 89.6283 16.52C89.6283 16.178 89.7543 15.944 90.1503 15.944C90.6903 15.944 91.4463 16.16 91.5543 16.52C91.5723 16.61 91.5903 16.664 91.6443 16.664C91.6983 16.664 91.8243 16.574 92.0583 16.358C92.9403 15.53 94.0923 14.864 95.2623 14.864C96.0903 14.864 96.9183 15.188 97.6383 16.016C98.0703 16.502 98.2863 16.808 98.2863 16.916C98.2863 16.934 98.2863 16.97 98.2503 16.97C98.2143 16.97 98.1063 16.916 98.0523 16.916C97.9803 16.916 97.9263 16.97 97.9263 17.096C97.9263 17.348 98.3043 18.662 98.3043 18.914C98.3043 19.292 98.1243 19.544 98.1243 20.03C98.1243 20.426 98.2683 21.758 98.2683 22.118C98.2683 22.586 97.8543 22.964 97.8543 23.306C97.8543 23.432 97.8363 23.486 97.6023 23.486C97.1523 23.486 96.4503 23.414 96.4503 23.252C96.4503 23.144 96.6303 23.036 96.7203 23.036C96.8463 23.036 96.9543 23.144 97.0263 23.144C97.0983 23.144 97.1163 23.054 97.1343 22.712V22.568C97.1343 21.902 96.4683 22.136 96.4683 21.452C96.4683 21.272 96.5223 21.002 96.5223 20.804C96.5223 20.372 96.0543 18.968 96.0543 18.554C96.0543 18.374 96.1083 18.284 96.2163 18.284C96.2883 18.284 96.3243 18.248 96.3243 18.176C96.3243 17.762 95.6043 17.114 95.1543 17.114C94.5063 17.114 93.3723 18.23 93.3723 18.464C93.3723 18.626 93.1023 18.752 92.7783 18.752C92.5803 18.752 92.4543 19.04 92.4543 19.328C92.4543 19.544 92.6343 19.85 92.6343 19.976C92.6343 20.048 92.5803 20.066 92.4183 20.066C92.2563 20.066 92.2023 20.12 92.2023 20.228C92.2023 20.426 92.3643 20.732 92.3643 20.966C92.3643 21.164 92.2203 21.254 92.2203 21.452C92.2203 21.794 92.4363 22.262 92.4363 22.64C92.4363 23.126 91.9683 23.432 91.6623 23.432C91.4283 23.432 90.8523 23.234 90.8523 23.108C90.8523 23.054 90.9423 23.018 91.1583 23.018C91.2663 23.018 91.3023 23 91.3023 22.964C91.3023 22.91 91.1583 22.802 90.9423 22.766C90.7623 22.73 90.6903 22.622 90.6903 22.37C90.6903 21.992 90.2403 21.254 90.2403 20.804ZM99.7153 16.988C99.7153 16.286 98.8513 16.106 98.8513 15.386C98.8513 15.296 98.8873 15.206 98.9593 15.152C99.1933 14.99 99.2293 14.522 99.5353 14.432C99.6793 14.396 99.7693 14.252 99.7693 14.072C99.7693 13.046 100.435 11.534 101.425 11.534H101.443L101.839 11.552L101.461 11.732C101.209 11.858 101.119 12.002 101.119 12.146C101.119 12.578 101.875 13.064 101.875 13.46C101.875 13.478 101.857 13.496 101.857 13.514V13.622C101.857 13.712 101.875 13.784 101.911 13.784C101.965 13.784 102.019 13.892 102.019 14.036C102.019 14.198 102.109 14.234 102.235 14.234C102.379 14.234 102.541 14.18 102.685 14.18C102.793 14.18 102.883 14.216 102.919 14.306C102.955 14.414 103.243 14.486 103.657 14.54C104.485 14.63 104.719 14.81 104.719 15.476C104.719 16.07 104.017 15.656 103.675 16.052C103.567 16.178 103.495 16.232 103.441 16.232C103.351 16.232 103.297 16.106 103.135 16.106C102.919 16.106 102.433 16.394 102.307 16.394C102.073 16.394 101.911 17.438 101.911 18.194C101.911 18.518 101.983 18.716 101.983 18.95C101.983 19.076 101.929 19.094 101.857 19.094H101.803C101.713 19.094 101.623 19.112 101.623 19.364C101.623 19.4 101.641 19.436 101.641 19.472C101.659 19.706 101.677 20.282 101.695 20.786C101.731 21.56 101.785 21.776 102.109 22.316C102.343 22.676 102.451 22.928 102.451 23.126C102.451 23.162 102.433 23.216 102.433 23.252V23.36C102.433 23.576 102.523 23.81 102.523 23.972C102.523 24.116 102.451 24.206 102.181 24.206C101.983 24.206 101.821 24.062 101.605 23.72C101.425 23.432 101.299 23.288 101.173 23.288C101.155 23.288 101.119 23.306 101.101 23.306C101.047 23.324 101.029 23.324 100.975 23.324C100.669 23.324 100.363 23 100.363 22.622C100.363 22.244 99.5173 20.732 99.5173 20.084C99.5173 19.76 99.7333 19.904 99.7333 19.508C99.7333 18.986 99.5893 17.942 99.5893 17.708V17.654C99.6613 17.438 99.7153 17.204 99.7153 16.988ZM106.783 21.326C106.783 21.524 107.917 21.542 108.169 21.542C108.493 21.542 108.799 21.506 109.141 21.416C109.879 21.218 109.897 21.2 109.969 20.714V20.588C109.969 20.192 109.807 19.382 109.609 19.382C109.483 19.382 109.303 19.526 108.961 19.598C108.619 19.67 106.783 20.948 106.783 21.326ZM111.085 23.018C110.833 23.018 110.617 22.784 110.617 22.514C110.617 22.37 110.563 22.316 110.491 22.316C110.383 22.316 110.203 22.46 110.041 22.73C109.807 23.126 109.771 23.144 109.177 23.144C108.349 23.144 107.449 23.486 106.621 23.486C106.009 23.486 105.973 23.486 105.343 22.82C104.821 22.262 104.497 21.938 104.497 21.254C104.497 20.552 104.893 19.706 105.487 19.256C105.739 19.076 106.153 18.716 106.423 18.446C106.999 17.87 108.007 17.348 108.745 17.258L109.303 17.186C109.087 16.844 108.889 16.52 108.673 16.178L107.953 16.538C107.557 16.736 107.089 17.006 106.873 17.168C106.639 17.348 106.495 17.438 106.423 17.438C106.369 17.438 106.351 17.384 106.351 17.276C106.351 17.168 106.243 17.096 106.081 17.096C105.757 17.096 105.523 16.916 105.235 16.466C105.145 16.34 105.109 16.25 105.109 16.178C105.109 15.998 105.775 15.368 105.829 15.206C105.901 14.954 107.647 13.928 108.655 13.928C108.961 13.928 109.267 14 109.645 14.198C110.257 14.504 110.545 14.864 111.373 16.286C111.571 16.628 111.679 16.808 111.679 16.898C111.679 16.97 111.589 16.988 111.445 16.988C111.301 16.988 111.265 17.06 111.265 17.168C111.265 17.492 111.643 18.14 111.643 18.644C111.643 18.95 111.553 19.004 111.553 19.454C111.553 20.03 111.625 20.93 111.751 21.452V21.524C111.751 21.884 111.319 22.55 111.319 22.82C111.319 22.946 111.211 23.018 111.085 23.018ZM112.732 12.38C112.768 12.38 112.876 12.416 112.912 12.416C112.984 12.416 113.02 12.344 113.02 12.236C113.02 11.984 113.182 11.966 113.182 11.768C113.182 11.732 113.182 11.696 113.164 11.642V11.588C113.164 11.426 113.29 11.246 113.29 11.12C113.29 11.084 113.254 11.048 113.218 11.03V11.012C113.218 10.976 113.596 10.958 114.118 10.958H114.208C115.27 10.958 115.738 11.138 115.738 11.552C115.738 12.002 114.586 13.532 114.586 13.532C114.532 13.496 114.496 13.478 114.478 13.478C114.442 13.478 114.442 13.496 114.442 13.586C114.442 13.694 114.352 13.784 114.262 13.784C113.992 13.784 114.046 14.216 113.722 14.216H113.668C113.38 14.18 112.948 13.856 112.948 13.694V13.658C112.948 13.64 112.966 13.64 112.966 13.622C112.966 13.478 112.57 13.208 112.57 12.992C112.57 12.974 112.57 12.992 112.588 12.992C112.624 12.992 112.696 13.046 112.714 13.046C112.732 13.046 112.75 13.028 112.75 12.974C112.75 12.884 112.678 12.542 112.678 12.452C112.678 12.398 112.696 12.38 112.732 12.38ZM112.462 16.934C112.462 16.61 112.678 16.394 112.966 16.394C113.434 16.394 114.442 16.754 114.442 16.934C114.442 17.024 114.55 17.132 114.676 17.204C114.946 17.348 115.324 18.5 115.324 19.058C115.324 19.112 115.306 19.184 115.306 19.22C115.288 19.274 115.288 19.346 115.288 19.4C115.288 19.634 115.468 19.868 115.468 20.012C115.468 20.03 115.45 20.048 115.432 20.048C115.396 20.048 115.162 19.958 115.108 19.958C115.054 19.958 115.036 19.976 115.036 20.048C115.036 20.156 115.108 20.48 115.108 20.606C115.108 20.93 114.946 21.056 114.946 21.398C114.946 21.578 115.072 22.1 115.072 22.226C115.072 22.334 114.712 23 114.424 23C114.208 23 113.956 22.82 113.956 22.514C113.956 22.388 113.884 22.316 113.74 22.316C113.488 22.316 113.29 22.118 113.29 21.902C113.29 21.83 113.326 21.776 113.326 21.704C113.326 21.416 112.966 20.912 112.966 20.588C112.966 20.372 113.182 20.336 113.182 20.102C113.182 19.85 113.038 19.508 113.038 19.238V19.13C113.038 18.752 112.462 17.276 112.462 16.934ZM116.766 20.804C116.766 20.606 116.874 20.498 116.874 20.282C116.874 19.94 116.712 19.544 116.712 19.202C116.712 19.166 116.73 19.112 116.73 19.076V18.986C116.73 18.428 116.154 17.24 116.154 16.52C116.154 16.178 116.28 15.944 116.676 15.944C117.216 15.944 117.972 16.16 118.08 16.52C118.098 16.61 118.116 16.664 118.17 16.664C118.224 16.664 118.35 16.574 118.584 16.358C119.466 15.53 120.618 14.864 121.788 14.864C122.616 14.864 123.444 15.188 124.164 16.016C124.596 16.502 124.812 16.808 124.812 16.916C124.812 16.934 124.812 16.97 124.776 16.97C124.74 16.97 124.632 16.916 124.578 16.916C124.506 16.916 124.452 16.97 124.452 17.096C124.452 17.348 124.83 18.662 124.83 18.914C124.83 19.292 124.65 19.544 124.65 20.03C124.65 20.426 124.794 21.758 124.794 22.118C124.794 22.586 124.38 22.964 124.38 23.306C124.38 23.432 124.362 23.486 124.128 23.486C123.678 23.486 122.976 23.414 122.976 23.252C122.976 23.144 123.156 23.036 123.246 23.036C123.372 23.036 123.48 23.144 123.552 23.144C123.624 23.144 123.642 23.054 123.66 22.712V22.568C123.66 21.902 122.994 22.136 122.994 21.452C122.994 21.272 123.048 21.002 123.048 20.804C123.048 20.372 122.58 18.968 122.58 18.554C122.58 18.374 122.634 18.284 122.742 18.284C122.814 18.284 122.85 18.248 122.85 18.176C122.85 17.762 122.13 17.114 121.68 17.114C121.032 17.114 119.898 18.23 119.898 18.464C119.898 18.626 119.628 18.752 119.304 18.752C119.106 18.752 118.98 19.04 118.98 19.328C118.98 19.544 119.16 19.85 119.16 19.976C119.16 20.048 119.106 20.066 118.944 20.066C118.782 20.066 118.728 20.12 118.728 20.228C118.728 20.426 118.89 20.732 118.89 20.966C118.89 21.164 118.746 21.254 118.746 21.452C118.746 21.794 118.962 22.262 118.962 22.64C118.962 23.126 118.494 23.432 118.188 23.432C117.954 23.432 117.378 23.234 117.378 23.108C117.378 23.054 117.468 23.018 117.684 23.018C117.792 23.018 117.828 23 117.828 22.964C117.828 22.91 117.684 22.802 117.468 22.766C117.288 22.73 117.216 22.622 117.216 22.37C117.216 21.992 116.766 21.254 116.766 20.804ZM131.767 18.662C131.767 18.716 131.551 18.824 131.551 18.896C131.551 18.986 131.731 19.13 132.235 19.472C133.171 20.102 133.819 20.93 133.819 21.542C133.819 22.334 133.567 22.694 132.505 23.324C131.605 23.864 131.497 23.9 130.741 23.9H130.561C129.481 23.9 126.943 23.234 126.943 22.658C126.943 22.532 126.097 21.47 126.097 21.056C126.097 20.948 126.151 20.894 126.295 20.894C126.385 20.894 126.709 21.11 126.997 21.362C127.591 21.866 128.023 22.136 128.257 22.136C128.455 22.136 128.563 21.956 128.887 21.956C129.211 21.956 129.589 22.028 129.895 22.19C130.183 22.334 130.381 22.424 130.543 22.424C130.975 22.424 131.443 21.848 131.443 21.398C131.443 20.894 131.119 20.732 129.445 20.354C128.293 20.102 126.943 19.634 126.259 19.256C125.935 19.076 125.521 18.284 125.521 17.834C125.521 16.844 127.663 14.27 128.581 14.252C128.851 14.252 129.913 13.802 130.219 13.802C130.417 13.802 130.579 13.856 130.795 13.964C130.993 14.072 131.551 14.27 132.037 14.396C133.315 14.72 134.161 15.206 134.161 16.376C134.161 16.754 133.981 17.006 133.711 17.006C133.567 17.006 133.387 16.916 133.189 16.754C133.045 16.628 132.685 16.574 132.181 16.556C131.281 16.52 130.381 16.358 130.039 16.142C129.967 16.088 129.913 16.07 129.859 16.07C129.751 16.07 129.625 16.142 129.409 16.34C128.509 17.132 128.131 17.492 128.131 17.564C128.131 17.816 130.867 18.266 131.551 18.536C131.695 18.59 131.767 18.626 131.767 18.662Z" fill="white"/>
</svg>
